<?xml version="1.0" encoding="UTF-8" standalone="no"?>
<svg
   xmlns:dc="http://purl.org/dc/elements/1.1/"
   xmlns:cc="http://creativecommons.org/ns#"
   xmlns:rdf="http://www.w3.org/1999/02/22-rdf-syntax-ns#"
   xmlns:svg="http://www.w3.org/2000/svg"
   xmlns="http://www.w3.org/2000/svg"
   xmlns:sodipodi="http://sodipodi.sourceforge.net/DTD/sodipodi-0.dtd"
   xmlns:inkscape="http://www.inkscape.org/namespaces/inkscape"
   viewBox="0 0 16 16"
   id="svg2"
   version="1.1"
   inkscape:version="0.91 r13725"
   sodipodi:docname="checkbox-checked.svg">
  <metadata
     id="metadata16">
    <rdf:RDF>
      <cc:Work
         rdf:about="">
        <dc:format>image/svg+xml</dc:format>
        <dc:type
           rdf:resource="http://purl.org/dc/dcmitype/StillImage" />
        <dc:title></dc:title>
      </cc:Work>
    </rdf:RDF>
  </metadata>
  <defs
     id="defs14" />
  <sodipodi:namedview
     pagecolor="#ffffff"
     bordercolor="#666666"
     borderopacity="1"
     objecttolerance="10"
     gridtolerance="10"
     guidetolerance="10"
     inkscape:pageopacity="0"
     inkscape:pageshadow="2"
     inkscape:window-width="1400"
     inkscape:window-height="997"
     id="namedview12"
     showgrid="false"
     inkscape:zoom="59"
     inkscape:cx="10.101736"
     inkscape:cy="7.5953934"
     inkscape:window-x="0"
     inkscape:window-y="0"
     inkscape:window-maximized="1"
     inkscape:current-layer="svg2" />
  <g
     transform="translate(0 -1036.3622)"
     id="g4">
    <rect
       width="14"
       x="1"
       y="1"
       rx="1"
       height="14"
       style="fill:#f9f9f9"
       transform="translate(0 1036.3622)"
       id="rect6" />
    <path
       style="fill:#aaa"
       d="M 2 0 C 0.892 0 3.2526065e-18 0.892 0 2 L 0 14 C 0 15.108 0.892 16 2 16 L 14 16 C 15.108 16 16 15.108 16 14 L 16 2 C 16 0.892 15.108 3.2526065e-18 14 0 L 2 0 z M 2 1 L 14 1 C 14.554 1 15 1.446 15 2 L 15 14 C 15 14.554 14.554 15 14 15 L 2 15 C 1.446 15 1 14.554 1 14 L 1 2 C 1 1.446 1.446 1 2 1 z "
       transform="translate(0 1036.3622)"
       id="path8" />
    <path
       style="fill:#d64937;line-height:normal;color:#000"
       d="m 11.653408,1040.2805 c -0.365873,0.01 -0.727323,0.1623 -0.985551,0.4266 l -4.0292904,3.8367 -1.3822187,-1.5489 c -0.4918947,-0.656 -1.5705595,-0.7265 -2.1406524,-0.14 -0.5700929,0.5865 -0.4910061,1.6854 0.1569519,2.1808 l 2.3831825,2.5599 c 0.9369248,0.9369 1.3590497,0.8116 2.3049741,-0.1343 0,0 3.250459,-3.9103 5.155609,-5.232 0.421127,-0.3992 0.596878,-0.5102 0.377676,-1.0522 -0.219202,-0.542 -1.265927,-0.916 -1.840681,-0.8966 z"
       id="path10" />
  </g>
  <path
     style="opacity:1;fill:#35bf59;fill-opacity:1"
     d="M 6.4631737,11.834551 C 6.2327182,11.753218 5.9478078,11.541202 5.6271005,11.212386 5.5329151,11.115819 4.9923339,10.537234 4.425809,9.9266405 3.8592841,9.3160473 3.3178989,8.7401998 3.2227308,8.6469795 3.0272774,8.4555263 2.9672909,8.3742483 2.8731025,8.1732558 2.7665578,7.9458951 2.7319263,7.775339 2.7335474,7.4859626 c 0.00109,-0.1938412 0.00901,-0.274409 0.037497,-0.381356 0.152294,-0.5716963 0.5744474,-0.9349907 1.1707187,-1.0074902 0.3680508,-0.044751 0.7732714,0.059882 1.0613738,0.2740595 0.062602,0.046538 0.2863185,0.282189 0.5695695,0.5999517 0.9112646,1.0222943 1.0562776,1.1831375 1.0672269,1.1837285 0.00609,3.288e-4 0.9319904,-0.8765207 2.0575492,-1.9485546 1.1255586,-1.0720339 2.0854041,-1.9786154 2.1329891,-2.0146256 0.199554,-0.1510127 0.498682,-0.2589895 0.766302,-0.2766138 0.534829,-0.035222 1.309153,0.2396732 1.684068,0.5978648 0.143164,0.1367781 0.211321,0.2468466 0.271924,0.4391373 0.05571,0.1767569 0.05262,0.3338329 -0.009,0.460156 -0.06356,0.1302067 -0.328615,0.3942673 -0.586277,0.5840722 -0.501081,0.3691171 -1.036935,0.8499434 -1.829695,1.6417995 -0.938718,0.9376486 -1.8478813,1.9284979 -2.8619201,3.1190571 -0.536892,0.630352 -0.9709064,0.993304 -1.3053103,1.091587 -0.1409037,0.04141 -0.3573031,0.03524 -0.4973509,-0.01419 z"
     id="path4158"
     inkscape:connector-curvature="0" />
</svg>
