<?xml version="1.0" encoding="UTF-8" standalone="no"?>
<svg
   xmlns:dc="http://purl.org/dc/elements/1.1/"
   xmlns:cc="http://creativecommons.org/ns#"
   xmlns:rdf="http://www.w3.org/1999/02/22-rdf-syntax-ns#"
   xmlns:svg="http://www.w3.org/2000/svg"
   xmlns="http://www.w3.org/2000/svg"
   xmlns:sodipodi="http://sodipodi.sourceforge.net/DTD/sodipodi-0.dtd"
   xmlns:inkscape="http://www.inkscape.org/namespaces/inkscape"
   viewBox="0 0 16 16"
   id="svg2"
   version="1.1"
   inkscape:version="0.91 r13725"
   sodipodi:docname="checkbox-checked-dark.svg">
  <metadata
     id="metadata16">
    <rdf:RDF>
      <cc:Work
         rdf:about="">
        <dc:format>image/svg+xml</dc:format>
        <dc:type
           rdf:resource="http://purl.org/dc/dcmitype/StillImage" />
        <dc:title></dc:title>
      </cc:Work>
    </rdf:RDF>
  </metadata>
  <defs
     id="defs14" />
  <sodipodi:namedview
     pagecolor="#ffffff"
     bordercolor="#666666"
     borderopacity="1"
     objecttolerance="10"
     gridtolerance="10"
     guidetolerance="10"
     inkscape:pageopacity="0"
     inkscape:pageshadow="2"
     inkscape:window-width="1400"
     inkscape:window-height="997"
     id="namedview12"
     showgrid="false"
     inkscape:zoom="41.7193"
     inkscape:cx="6.1743598"
     inkscape:cy="8.1799337"
     inkscape:window-x="0"
     inkscape:window-y="0"
     inkscape:window-maximized="1"
     inkscape:current-layer="svg2" />
  <g
     transform="translate(0 -1036.3622)"
     id="g4">
    <rect
       width="14.789"
       x=".684"
       y="1037.078"
       rx="1"
       height="14.758"
       style="fill:#393939"
       id="rect6" />
    <path
       style="fill:#1f1f1f"
       d="M 2 0 C 0.892 0 3.2526065e-18 0.892 0 2 L 0 14 C 0 15.108 0.892 16 2 16 L 14 16 C 15.108 16 16 15.108 16 14 L 16 2 C 16 0.892 15.108 3.2526065e-18 14 0 L 2 0 z M 2 1 L 14 1 C 14.554 1 15 1.446 15 2 L 15 14 C 15 14.554 14.554 15 14 15 L 2 15 C 1.446 15 1 14.554 1 14 L 1 2 C 1 1.446 1.446 1 2 1 z "
       transform="translate(0 1036.3622)"
       id="path8" />
    <path
       style="fill:#d64937;line-height:normal;color:#000"
       d="m 11.653408,1040.2805 c -0.365873,0.01 -0.727323,0.1623 -0.985551,0.4266 l -4.0292904,3.8367 -1.3822187,-1.5489 c -0.4918947,-0.656 -1.5705595,-0.7265 -2.1406524,-0.14 -0.5700929,0.5865 -0.4910061,1.6854 0.1569519,2.1808 l 2.3831825,2.5599 c 0.9369248,0.9369 1.3590497,0.8116 2.3049741,-0.1343 0,0 3.250459,-3.9103 5.155609,-5.232 0.421127,-0.3992 0.596878,-0.5102 0.377676,-1.0522 -0.219202,-0.542 -1.265927,-0.916 -1.840681,-0.8966 z"
       id="path10" />
  </g>
  <path
     style="opacity:1;fill:#008000;fill-opacity:1"
     d="M 6.5393602,11.863512 C 6.3876525,11.827887 6.1415882,11.683851 5.9370596,11.510951 5.8315928,11.421794 5.2836071,10.853115 4.7193134,10.247219 4.1550197,9.6413243 3.5325888,8.9763946 3.3361334,8.769598 2.9521886,8.3654426 2.8533442,8.2149502 2.7709367,7.9090759 2.71522,7.7022709 2.7154013,7.3046247 2.7713073,7.0961807 2.9039301,6.6016999 3.2738947,6.2371703 3.7585302,6.1234608 4.1256836,6.0373161 4.619972,6.113612 4.9126832,6.3016101 5.080125,6.4091521 5.1285935,6.4595895 5.9126361,7.3421831 6.307887,7.7871153 6.6382444,8.1483863 6.6467637,8.1450072 6.655283,8.1416282 7.5911394,7.2543808 8.7264446,6.1733464 10.160913,4.8074494 10.836272,4.1801713 10.940227,4.1171682 c 0.490085,-0.2970219 1.1682,-0.2683558 1.876143,0.079311 0.419467,0.2059979 0.634263,0.4226414 0.73165,0.7379424 0.05946,0.1924927 0.05948,0.3470183 7.2e-5,0.4779084 -0.05086,0.1120212 -0.321651,0.3895197 -0.52798,0.5410449 -1.09655,0.8052905 -2.792951,2.5195882 -4.7259467,4.7758043 -0.8053421,0.940005 -1.2788652,1.246098 -1.7548051,1.134333 z"
     id="path4156"
     inkscape:connector-curvature="0" />
</svg>
