<?xml version="1.0" encoding="UTF-8" standalone="no"?>
<svg
   xmlns:dc="http://purl.org/dc/elements/1.1/"
   xmlns:cc="http://creativecommons.org/ns#"
   xmlns:rdf="http://www.w3.org/1999/02/22-rdf-syntax-ns#"
   xmlns:svg="http://www.w3.org/2000/svg"
   xmlns="http://www.w3.org/2000/svg"
   xmlns:sodipodi="http://sodipodi.sourceforge.net/DTD/sodipodi-0.dtd"
   xmlns:inkscape="http://www.inkscape.org/namespaces/inkscape"
   viewBox="0 0 40 40"
   id="svg2"
   version="1.1"
   inkscape:version="0.91 r13725"
   sodipodi:docname="grid-selection-checked.svg">
  <metadata
     id="metadata16">
    <rdf:RDF>
      <cc:Work
         rdf:about="">
        <dc:format>image/svg+xml</dc:format>
        <dc:type
           rdf:resource="http://purl.org/dc/dcmitype/StillImage" />
        <dc:title></dc:title>
      </cc:Work>
    </rdf:RDF>
  </metadata>
  <defs
     id="defs14" />
  <sodipodi:namedview
     pagecolor="#ffffff"
     bordercolor="#666666"
     borderopacity="1"
     objecttolerance="10"
     gridtolerance="10"
     guidetolerance="10"
     inkscape:pageopacity="0"
     inkscape:pageshadow="2"
     inkscape:window-width="1400"
     inkscape:window-height="997"
     id="namedview12"
     showgrid="false"
     inkscape:zoom="5.9"
     inkscape:cx="20"
     inkscape:cy="20"
     inkscape:window-x="0"
     inkscape:window-y="0"
     inkscape:window-maximized="1"
     inkscape:current-layer="svg2" />
  <g
     transform="translate(0 -1012.3622)"
     id="g4">
    <rect
       width="37.5"
       x="1.429"
       y="1013.791"
       rx="1"
       height="37.5"
       style="fill:#f9f9f9"
       id="rect6" />
    <path
       style="fill:#aaa"
       d="m 5,1012.3622 c -2.77,0 -5,2.23 -5,5 l 0,30 c 0,2.77 2.23,5 5,5 l 30,0 c 2.77,0 5,-2.23 5,-5 l 0,-30 c 0,-2.77 -2.23,-5 -5,-5 z m 0,2.0536 30,0 c 1.385,0 3.035714,1.5614 3.035714,2.9464 l 0,30 c 0,1.385 -1.650714,3.0357 -3.035714,3.0357 l -30,0 c -1.385,0 -2.9464286,-1.6507 -2.9464286,-3.0357 l 0,-30 c 0,-1.385 1.5614286,-2.9464 2.9464286,-2.9464 z"
       id="path8" />
    <path
       style="fill:#d64937;line-height:normal;color:#000"
       d="m 29.13352,1022.158 c -0.914683,0.025 -1.818308,0.4057 -2.463877,1.0665 l -10.073226,9.5917 -3.455547,-3.8722 c -1.229737,-1.64 -3.926399,-1.8163 -5.3516312,-0.35 -1.4252323,1.4662 -1.2275153,4.2135 0.3923797,5.452 l 5.9579565,6.3997 c 2.342312,2.3423 3.397624,2.029 5.762435,-0.3357 0,0 8.126148,-9.7758 12.889022,-13.08 1.052818,-0.998 1.492196,-1.2755 0.94419,-2.6305 -0.548004,-1.355 -3.164817,-2.29 -4.601702,-2.2415 z"
       id="path10" />
  </g>
  <path
     style="opacity:1;fill:#35bf59;fill-opacity:1"
     d="m 15.949153,29.561212 c -0.279661,-0.122171 -0.761074,-0.43502 -1.069807,-0.69522 -1.023902,-0.862946 -7.4358405,-7.795979 -7.7222486,-8.349831 -0.9252312,-1.7892 -0.2040365,-4.204886 1.4842436,-4.971565 0.9440905,-0.428729 2.462935,-0.424945 3.312071,0.0083 0.358475,0.18288 1.2968,1.040931 2.085167,1.90678 0.788367,0.865849 1.693302,1.858735 2.010967,2.206413 l 0.577573,0.632143 5.169491,-4.929869 c 2.843221,-2.711427 5.467254,-5.081824 5.831187,-5.267548 0.532439,-0.2717162 0.916574,-0.3261047 1.966476,-0.2784261 1.089471,0.049475 1.495251,0.1571236 2.459046,0.6523541 1.359067,0.698335 1.782579,1.203701 1.902835,2.270605 0.08568,0.76017 0.06301,0.80846 -0.745171,1.587159 -0.458449,0.441724 -1.317851,1.181175 -1.909781,1.643225 -1.424865,1.112221 -5.216533,4.916498 -7.806444,7.832401 -1.145292,1.289452 -2.613912,2.938493 -3.263599,3.664535 -1.221079,1.36459 -2.609716,2.324575 -3.349803,2.315765 -0.233051,-0.0028 -0.652542,-0.105002 -0.932203,-0.227173 z"
     id="path4144"
     inkscape:connector-curvature="0" />
</svg>
