<?xml version="1.0" encoding="UTF-8" standalone="no"?>
<svg
   xmlns:dc="http://purl.org/dc/elements/1.1/"
   xmlns:cc="http://creativecommons.org/ns#"
   xmlns:rdf="http://www.w3.org/1999/02/22-rdf-syntax-ns#"
   xmlns:svg="http://www.w3.org/2000/svg"
   xmlns="http://www.w3.org/2000/svg"
   xmlns:sodipodi="http://sodipodi.sourceforge.net/DTD/sodipodi-0.dtd"
   xmlns:inkscape="http://www.inkscape.org/namespaces/inkscape"
   viewBox="0 0 40 40"
   id="svg2"
   version="1.1"
   inkscape:version="0.91 r13725"
   sodipodi:docname="grid-selection-checked-dark.svg">
  <metadata
     id="metadata16">
    <rdf:RDF>
      <cc:Work
         rdf:about="">
        <dc:format>image/svg+xml</dc:format>
        <dc:type
           rdf:resource="http://purl.org/dc/dcmitype/StillImage" />
        <dc:title></dc:title>
      </cc:Work>
    </rdf:RDF>
  </metadata>
  <defs
     id="defs14" />
  <sodipodi:namedview
     pagecolor="#ffffff"
     bordercolor="#666666"
     borderopacity="1"
     objecttolerance="10"
     gridtolerance="10"
     guidetolerance="10"
     inkscape:pageopacity="0"
     inkscape:pageshadow="2"
     inkscape:window-width="1400"
     inkscape:window-height="997"
     id="namedview12"
     showgrid="false"
     inkscape:zoom="5.9"
     inkscape:cx="20"
     inkscape:cy="20"
     inkscape:window-x="0"
     inkscape:window-y="0"
     inkscape:window-maximized="1"
     inkscape:current-layer="svg2" />
  <g
     transform="translate(0 -1012.3622)"
     id="g4">
    <rect
       width="37.054"
       x="1.429"
       y="1013.791"
       rx="1"
       height="37.054"
       style="fill:#393939"
       id="rect6" />
    <path
       style="fill:#1f1f1f"
       d="m 5,1012.3622 c -2.77,0 -5,2.23 -5,5 l 0,30 c 0,2.77 2.23,5 5,5 l 30,0 c 2.77,0 5,-2.23 5,-5 l 0,-30 c 0,-2.77 -2.23,-5 -5,-5 z m 0,2.0536 30,0 c 1.385,0 3.035714,1.5614 3.035714,2.9464 l 0,30 c 0,1.385 -1.650714,3.0357 -3.035714,3.0357 l -30,0 c -1.385,0 -2.9464286,-1.6507 -2.9464286,-3.0357 l 0,-30 c 0,-1.385 1.5614286,-2.9464 2.9464286,-2.9464 z"
       id="path8" />
    <path
       style="fill:#d64937;line-height:normal;color:#000"
       d="m 29.13352,1022.158 c -0.914683,0.025 -1.818308,0.4057 -2.463877,1.0665 l -10.073226,9.5917 -3.455547,-3.8722 c -1.229737,-1.64 -3.926399,-1.8163 -5.3516312,-0.35 -1.4252323,1.4662 -1.2275153,4.2135 0.3923797,5.452 l 5.9579565,6.3997 c 2.342312,2.3423 3.397624,2.029 5.762435,-0.3357 0,0 8.126148,-9.7758 12.889022,-13.08 1.052818,-0.998 1.492196,-1.2755 0.94419,-2.6305 -0.548004,-1.355 -3.164817,-2.29 -4.601702,-2.2415 z"
       id="path10" />
  </g>
  <path
     style="opacity:1;fill:#35bf59;fill-opacity:1"
     d="M 15.779661,29.481186 C 15.40678,29.301939 14.410302,28.441529 13.565266,27.569166 10.201941,24.097075 7.4223175,21.039803 7.1561598,20.51987 6.2403513,18.730861 6.9212406,16.403656 8.6129883,15.54059 c 0.5615644,-0.286488 0.9287922,-0.342782 1.9121857,-0.293122 1.563994,0.07898 1.856485,0.284584 4.22611,2.970736 l 1.852979,2.100494 1.028377,-0.99941 c 4.660558,-4.52928 9.430463,-8.930543 9.985335,-9.213617 0.543137,-0.2770883 0.920966,-0.3312553 1.976298,-0.2833301 1.089471,0.049475 1.495251,0.1571236 2.459046,0.6523541 1.345523,0.691375 1.782978,1.204735 1.897101,2.226282 0.104797,0.93804 -0.135989,1.256357 -2.215586,2.928985 -0.859102,0.690978 -2.617158,2.311571 -3.906793,3.601317 -2.079088,2.079264 -3.330149,3.437265 -7.508458,8.150268 -1.930067,2.177056 -3.178136,2.754268 -4.539922,2.099639 z"
     id="path4144"
     inkscape:connector-curvature="0" />
</svg>
