<?xml version="1.0" encoding="UTF-8" standalone="no"?>
<svg
   xmlns:dc="http://purl.org/dc/elements/1.1/"
   xmlns:cc="http://creativecommons.org/ns#"
   xmlns:rdf="http://www.w3.org/1999/02/22-rdf-syntax-ns#"
   xmlns:svg="http://www.w3.org/2000/svg"
   xmlns="http://www.w3.org/2000/svg"
   xmlns:sodipodi="http://sodipodi.sourceforge.net/DTD/sodipodi-0.dtd"
   xmlns:inkscape="http://www.inkscape.org/namespaces/inkscape"
   viewBox="0 0 16 16"
   id="svg2"
   version="1.1"
   inkscape:version="0.91 r13725"
   sodipodi:docname="radio-selected.svg">
  <metadata
     id="metadata16">
    <rdf:RDF>
      <cc:Work
         rdf:about="">
        <dc:format>image/svg+xml</dc:format>
        <dc:type
           rdf:resource="http://purl.org/dc/dcmitype/StillImage" />
        <dc:title></dc:title>
      </cc:Work>
    </rdf:RDF>
  </metadata>
  <defs
     id="defs14" />
  <sodipodi:namedview
     pagecolor="#ffffff"
     bordercolor="#666666"
     borderopacity="1"
     objecttolerance="10"
     gridtolerance="10"
     guidetolerance="10"
     inkscape:pageopacity="0"
     inkscape:pageshadow="2"
     inkscape:window-width="1400"
     inkscape:window-height="997"
     id="namedview12"
     showgrid="false"
     inkscape:zoom="41.7193"
     inkscape:cx="5.7772165"
     inkscape:cy="9.5302211"
     inkscape:window-x="0"
     inkscape:window-y="0"
     inkscape:window-maximized="1"
     inkscape:current-layer="svg2" />
  <g
     transform="translate(0 -1036.3622)"
     id="g4">
    <path
       style="fill:#f9f9f9"
       d="m 15,8 c 0,3.865993 -3.134007,7 -7,7 C 4.1340068,15 1,11.865993 1,8 1,4.1340068 4.1340068,1 8,1 c 3.865993,0 7,3.1340068 7,7 z"
       transform="translate(0 1036.3622)"
       id="path6" />
    <path
       style="fill:#aaa"
       d="M 8 0 C 3.581722 8.8817842e-16 -3.006854e-17 3.581722 0 8 C 0 12.418278 3.581722 16 8 16 C 12.418278 16 16 12.418278 16 8 C 16 3.581722 12.418278 -1.8064254e-15 8 0 z M 8 1 C 11.865993 1 15 4.1340068 15 8 C 15 11.865993 11.865993 15 8 15 C 4.1340068 15 1 11.865993 1 8 C 1 4.1340068 4.1340068 1 8 1 z "
       transform="translate(0 1036.3622)"
       id="path8" />
    <path
       style="fill:#d64937"
       d="M 11,8 C 11,9.6568542 9.6568542,11 8,11 6.3431458,11 5,9.6568542 5,8 5,6.3431458 6.3431458,5 8,5 c 1.6568542,0 3,1.3431458 3,3 z"
       transform="translate(0 1036.3622)"
       id="path10" />
  </g>
  <path
     style="opacity:1;fill:#35bf59;fill-opacity:1"
     d="M 7.6575261,10.991926 C 7.1210637,10.930424 6.571276,10.705425 6.1349926,10.368835 5.6972333,10.031106 5.314839,9.4783543 5.1324726,8.9196898 4.9481396,8.3550011 4.9523237,7.6184197 5.1431485,7.0402583 5.4529838,6.1015185 6.2805268,5.3299634 7.2380808,5.0870599 8.6139244,4.7380485 10.035907,5.3738306 10.675086,6.6237781 c 0.13427,0.2625704 0.24834,0.5982893 0.296256,0.8719049 0.04048,0.2311759 0.04048,0.7755523 0,1.0067283 -0.163659,0.9345482 -0.761909,1.7479537 -1.5992603,2.1744217 -0.5455561,0.277856 -1.1194359,0.383321 -1.7145556,0.315093 z"
     id="path4144"
     inkscape:connector-curvature="0" />
</svg>
